<?xml version="1.0" encoding="utf-8"?>
<!-- Generator: Adobe Illustrator 25.2.1, SVG Export Plug-In . SVG Version: 6.00 Build 0)  -->
<svg version="1.1" id="Layer_1" xmlns="http://www.w3.org/2000/svg" xmlns:xlink="http://www.w3.org/1999/xlink" x="0px" y="0px"
	 viewBox="0 0 360 360" style="enable-background:new 0 0 360 360;" xml:space="preserve">
<style type="text/css">
	.st0{fill:#EEEEEE;}
	.st1{fill:#303841;}
	.st2{fill:#FCFCFC;}
	.st3{fill:#010101;}
</style>
<g id="Layer_1_1_">
	<g>
		<path class="st0" d="M179.8,25.2c0.1-1,0.2-2,0.3-3c0.2,0,0.4-0.1,0.6-0.1c4.9,15.9,10.1,31.7,14.5,47.8c1.9,6.8,6.9,10.6,11,15.3
			c12.4,14,24.9,27.9,37.6,41.6c2.6,2.8,2.6,4.8,0.5,7.6c-1.4,1.9-2.5,4.2-4.1,6.1c0.6-2.7-0.3-5.4,0.8-8c1-2.2-1-3.2-2.2-4.4
			c-7.2-6.7-14.3-13.7-21.9-19.9c-5.4-4.4-9.4-9.7-12.9-15.6c-0.3-0.5-0.7-1-1.9-0.7c1.6,5.6,3.3,11.2,4.9,16.8
			c6.6,22.6,13.1,45.2,19.6,67.8c0.7,2.3,0.6,4.3-0.6,6.7c-12.2,24.6-27.9,46.9-43.9,69.1c-0.2,0.3-0.6,3.7-2.2,0.6
			c0.1-12.9,0.1-25.9,0.2-38.8c0-31.9,0.1-63.8,0.1-95.7c0-16.3-0.1-32.7-0.1-49C179.8,54.7,179.8,40,179.8,25.2z"/>
		<path class="st0" d="M273.1,222.9c4.3-0.7,8.2-3.4,13-2.8c-26.7,17.2-48.6,39.2-66.9,65.1c1.6-6.8,5.5-12.7,6.2-19.8
			c-5,7-10,14.1-15.1,21.1c-9.1,12.3-18.4,24.6-27.8,36.7c-0.5,0.6-0.6,3.3-2.7,1.7c0.1-1.6,0.2-3.3,0.2-4.9
			c0.2-7.9-0.5-15.8,0.4-23.6c13.1-19.1,26.3-38.2,39.4-57.4c12.8-18.7,25.6-37.4,37.1-57c2.3-3.9,2.4-6.8-0.7-10.1
			c-4.1-4.5-8.1-9.2-12.1-13.8c0.2-0.2,0.5-0.4,0.7-0.6c5.9,1,10.2,5.3,15.4,7.6c0.9,0.4,1.8,1.1,2.7,1.6c9.5,5.4,9.4,5.4,5.4,15.7
			c-4.3,11.2-9.2,22.2-14.5,33.4c3.7,0.2,6.6-1.5,9.4-2.6c15.1-5.8,29.3-13.2,42.7-22.2c2-1.3,3.3-2.9,3.9-5.2
			c1.9-7.3,4-14.6,6.7-21.9c1,6,1.4,12.1,3.1,17.8c1.9,6.4-1.3,9.6-5.7,13.3c-12.8,10.6-27.1,18.8-41.5,26.9c-0.7,0.4-1.7,0-2.3,1.2
			C271.2,223,272.1,223,273.1,222.9z"/>
		<path class="st1" d="M180.4,296.4c-0.9,7.9-0.2,15.8-0.4,23.6c0,1.6-0.1,3.3-0.2,4.9c-1,0-1.6-0.7-2.2-1.4
			c-14.1-18.8-28.7-37.1-41.7-56.7c-1.4-2.2-2.8-4.4-4.6-6.3c2.2,7.9,6.6,14.8,8.5,22.8c-18.8-25.5-40.8-47.6-67.7-64.8
			c6.9,2.2,13.9,4.4,20.8,6.5c0.1-0.2,0.2-0.5,0.3-0.7c-4.8-2.5-9.7-5.1-14.5-7.6c-13.3-7-25.3-15.9-36.9-25.4
			c-1.4-1.1-2.3-2.3-2-4.2c1.3-7.5,2.5-15.1,4.7-22.7c1.4,5.4,3,10.8,4.2,16.2c1.2,5.7,3.9,9.7,9.2,12.9c13.8,8.5,28.1,16,43.4,21.3
			c1.3,0.5,2.7,1.4,4.9,0.8c-1.5-3.2-2.9-6.4-4.4-9.5c-4.8-10-8.7-20.3-12.4-30.8c-0.5-1.3-1.7-2.9,0.2-4c8.6-5,17.2-10,25.8-14.9
			c0.3,0.4,0.6,0.7,0.8,1.1c-3,3.5-6.1,7-9.1,10.6c-7.4,8.8-7.3,9.6-1,19.3c9.2,14,18,28.2,27.4,42.1c11,16.4,22.4,32.5,33.6,48.7
			c3.2,4.7,6.3,9.4,9.5,14.1C177.5,293.9,178.5,295.5,180.4,296.4z"/>
		<path class="st1" d="M179.8,25.2c0,14.8,0.1,29.5,0.1,44.2c-2.8,7.7-4.2,15.8-5.9,23.8c-5.8,26.3-11.8,52.6-18.6,78.6
			c-0.4,1.7,0.1,2.9,0.7,4.2c4.8,11,11.3,21.1,17.8,31c1.6,2.5,2.3,6.4,6.2,7c-0.1,12.9-0.1,25.9-0.2,38.8
			c-4.6-2.6-6.7-7.5-9.5-11.5c-12.5-17.9-24.6-36-34.7-55.5c-2.2-4.2-2.6-8-1.3-12.4c7-23.9,13.8-47.9,20.8-71.8
			c1.2-4.1,3-8.1,3.4-12.5c0.2-0.3,0.4-0.6,0.6-0.9c0,0-0.2-0.2-0.3-0.3c-0.1,0.4-0.3,0.8-0.4,1.1c-1.9,1-2.4,3-3.3,4.7
			c-5.3,10.4-15.1,16.4-22.9,24.4c-3.7,3.8-7.9,7.3-12,10.8c-1.3,1.2-1.7,2.4-1,4c0.8,1.9,0.5,3.8,0.5,5.9
			c-5.6-4.3-6.4-8.2-2.3-12.9c10.2-11.5,20.5-22.9,30.8-34.3c4.8-5.3,10-10.4,14.2-16.1c3.4-4.7,3.8-10.9,5.6-16.4
			c3.4-10.4,6.4-20.8,9.7-31.2C178.1,26.8,178,25.3,179.8,25.2z"/>
		<path class="st2" d="M244.1,158.1c-0.3-0.4-0.6-0.8-0.9-1.2c0.8-0.4,1.3-0.3,1.6,0.6C244.6,157.7,244.3,157.9,244.1,158.1z"/>
		<path class="st3" d="M158.4,89.1c0.1-0.4,0.3-0.8,0.4-1.1c0.1,0.1,0.3,0.2,0.3,0.3C158.9,88.6,158.7,88.9,158.4,89.1
			C158.5,89.2,158.4,89.1,158.4,89.1z"/>
	</g>
</g>
</svg>
